<?xml version="1.0" encoding="UTF-8" standalone="no"?>
<!-- Created with Inkscape (http://www.inkscape.org/) -->

<svg
   version="1.1"
   id="svg1"
   width="1122.52"
   height="402.36267"
   viewBox="0 0 1122.52 402.36267"
   sodipodi:docname="IVS.ai"
   xmlns:inkscape="http://www.inkscape.org/namespaces/inkscape"
   xmlns:sodipodi="http://sodipodi.sourceforge.net/DTD/sodipodi-0.dtd"
   xmlns="http://www.w3.org/2000/svg"
   xmlns:svg="http://www.w3.org/2000/svg">
  <defs
     id="defs1">
    <clipPath
       clipPathUnits="userSpaceOnUse"
       id="clipPath2">
      <path
         d="M 0,301.772 H 841.89 V 0 H 0 Z"
         transform="translate(-351.56801,-210.12)"
         id="path2" />
    </clipPath>
    <clipPath
       clipPathUnits="userSpaceOnUse"
       id="clipPath4">
      <path
         d="M 0,301.772 H 841.89 V 0 H 0 Z"
         id="path4" />
    </clipPath>
    <clipPath
       clipPathUnits="userSpaceOnUse"
       id="clipPath6">
      <path
         d="M 0,301.772 H 841.89 V 0 H 0 Z"
         transform="translate(-384.77701,-123.3407)"
         id="path6" />
    </clipPath>
    <clipPath
       clipPathUnits="userSpaceOnUse"
       id="clipPath8">
      <path
         d="M 0,301.772 H 841.89 V 0 H 0 Z"
         id="path8" />
    </clipPath>
    <clipPath
       clipPathUnits="userSpaceOnUse"
       id="clipPath10">
      <path
         d="M 0,301.772 H 841.89 V 0 H 0 Z"
         transform="translate(-420.19691,-260.59461)"
         id="path10" />
    </clipPath>
    <clipPath
       clipPathUnits="userSpaceOnUse"
       id="clipPath12">
      <path
         d="M 0,301.772 H 841.89 V 0 H 0 Z"
         id="path12" />
    </clipPath>
    <clipPath
       clipPathUnits="userSpaceOnUse"
       id="clipPath14">
      <path
         d="M 0,301.772 H 841.89 V 0 H 0 Z"
         transform="translate(-735.88252,-166.7318)"
         id="path14" />
    </clipPath>
    <clipPath
       clipPathUnits="userSpaceOnUse"
       id="clipPath16">
      <path
         d="M 0,301.772 H 841.89 V 0 H 0 Z"
         transform="translate(-209.4469,-114.9306)"
         id="path16" />
    </clipPath>
    <clipPath
       clipPathUnits="userSpaceOnUse"
       id="clipPath18">
      <path
         d="M 0,301.772 H 841.89 V 0 H 0 Z"
         transform="translate(-106.7272,-135.7382)"
         id="path18" />
    </clipPath>
  </defs>
  <sodipodi:namedview
     id="namedview1"
     pagecolor="#ffffff"
     bordercolor="#000000"
     borderopacity="0.25"
     inkscape:showpageshadow="2"
     inkscape:pageopacity="0.0"
     inkscape:pagecheckerboard="0"
     inkscape:deskcolor="#d1d1d1">
    <inkscape:page
       x="0"
       y="0"
       inkscape:label="1"
       id="page1"
       width="1122.52"
       height="402.36267"
       margin="46.2192 113.004 54.902668 105.11"
       bleed="0" />
  </sodipodi:namedview>
  <g
     id="layer-MC0"
     inkscape:groupmode="layer"
     inkscape:label="Layer 1">
    <path
       id="path1"
       d="m 0,0 c 7.531,3.542 15.056,7.086 22.142,9.741 v -19.923 c -7.086,-3.985 -14.611,-8.41 -21.697,-13.28 -65.086,-42.064 -107.59,-99.622 -95.634,-127.962 10.623,-24.789 61.097,-18.592 117.331,12.395 v -23.461 c -63.314,-23.02 -119.547,-15.055 -131.503,21.252 C -122.64,-99.618 -73.498,-36.305 0,0 M 22.142,9.741 C 87.227,34.981 145.67,27.895 158.064,-9.741 171.35,-50.916 122.201,-114.671 49.147,-150.979 40.296,-155.41 30.994,-158.947 22.142,-162.49 v 23.461 c 7.524,3.988 14.611,8.42 22.135,13.285 C 108.48,-83.678 151.422,-26.12 139.029,1.772 128.4,27.012 77.926,20.811 22.142,-10.182 Z"
       style="fill:#d3d2d2;fill-opacity:1;fill-rule:evenodd;stroke:none"
       transform="matrix(1.3333333,0,0,-1.3333333,468.75733,122.20267)"
       clip-path="url(#clipPath2)" />
    <path
       id="path3"
       d="m 81.931,119.801 h 301.958 v 3.54 H 81.931 Z"
       style="fill:#f47216;fill-opacity:1;fill-rule:evenodd;stroke:none"
       transform="matrix(1.3333333,0,0,-1.3333333,0,402.36267)"
       clip-path="url(#clipPath4)" />
    <path
       id="path5"
       d="M 0,0 34.977,-81.025 31.878,-82.354 -3.099,-0.886 Z"
       style="fill:#f47216;fill-opacity:1;fill-rule:evenodd;stroke:none"
       transform="matrix(1.3333333,0,0,-1.3333333,513.036,237.9084)"
       clip-path="url(#clipPath6)" />
    <path
       id="path7"
       d="m 416.655,260.595 h 3.542 V 40.988 h -3.542 z"
       style="fill:#f47216;fill-opacity:1;fill-rule:evenodd;stroke:none"
       transform="matrix(1.3333333,0,0,-1.3333333,0,402.36267)"
       clip-path="url(#clipPath8)" />
    <path
       id="path9"
       d="M 0,0 23.908,-106.26 20.369,-107.146 -3.542,-0.442 Z"
       style="fill:#f47216;fill-opacity:1;fill-rule:evenodd;stroke:none"
       transform="matrix(1.3333333,0,0,-1.3333333,560.26253,54.9032)"
       clip-path="url(#clipPath10)" />
    <path
       id="path11"
       d="m 441.449,153.449 h 297.977 v 3.542 H 441.449 Z"
       style="fill:#f47216;fill-opacity:1;fill-rule:evenodd;stroke:none"
       transform="matrix(1.3333333,0,0,-1.3333333,0,402.36267)"
       clip-path="url(#clipPath12)" />
    <path
       id="path13"
       d="M 0,0 21.254,-11.513 0,-23.024 Z"
       style="fill:#f47216;fill-opacity:1;fill-rule:evenodd;stroke:none"
       transform="matrix(1.3333333,0,0,-1.3333333,981.17667,180.0536)"
       clip-path="url(#clipPath14)" />
    <path
       id="path15"
       d="M 0,0 C 3.538,0 6.198,2.654 6.198,6.197 6.198,9.74 3.538,12.395 0,12.395 -3.542,12.395 -6.203,9.74 -6.203,6.197 -6.203,2.654 -3.542,0 0,0"
       style="fill:#f47216;fill-opacity:1;fill-rule:evenodd;stroke:none"
       transform="matrix(1.3333333,0,0,-1.3333333,279.26253,249.12187)"
       clip-path="url(#clipPath16)" />
    <path
       id="path17"
       d="m 0,0 h 7.08 l 9.302,-17.71 V 0 h 7.081 V -32.32 H 16.382 L 7.08,-14.61 V -32.32 H 0 Z m 54.456,0 v -7.526 h -1.771 -1.772 v -17.27 h 1.772 1.771 V -32.32 H 43.388 V 0 Z m -82.351,0 h 7.969 v -32.32 h -7.969 z m 181.972,0 h 7.525 v -32.32 h -7.525 z m -44.276,0 h 7.969 L 123.528,-23.466 128.843,0 h 7.969 l -9.302,-32.32 h -8.407 z M 84.566,0 h 7.969 v -32.32 h -7.969 z m -30.11,-32.32 v 7.524 c 0.889,0 1.327,0 1.771,0.444 0.445,0.445 1.328,1.328 1.328,2.656 0.444,0.888 0.888,2.66 0.888,5.314 0,3.543 -0.444,5.756 -1.327,7.086 -0.444,0.883 -1.333,1.327 -2.66,1.77 V 0 c 2.216,0 3.987,-0.444 5.759,-1.327 1.327,-0.886 2.21,-1.772 3.098,-3.543 0.883,-1.327 1.772,-3.099 2.21,-4.871 0.445,-2.212 0.445,-3.985 0.445,-6.197 0,-3.543 -0.445,-6.2 -0.883,-7.969 -0.444,-2.215 -1.327,-3.543 -2.66,-4.869 -0.883,-1.33 -2.21,-2.217 -3.099,-2.661 -1.771,-0.441 -3.543,-0.883 -4.87,-0.883 M 193.04,0 v -7.526 h -1.772 -1.772 v -17.27 h 1.772 1.772 V -32.32 H 181.973 V 0 Z m 46.048,0 h 7.524 v -19.481 c 0,-1.771 0,-3.543 -0.443,-5.315 -0.44,-1.771 -1.328,-3.098 -2.211,-4.426 -0.889,-1.326 -1.771,-2.215 -3.099,-2.656 -1.326,-0.887 -3.098,-0.887 -5.314,-0.887 h -3.987 c -1.328,0.445 -2.655,0.887 -3.538,1.328 -0.888,0.889 -1.771,1.772 -2.66,3.101 -0.882,0.886 -1.327,2.214 -1.772,3.54 -0.438,2.217 -0.438,3.988 -0.438,5.315 V 0 h 7.525 v -19.925 c 0,-1.771 0.444,-3.099 1.327,-3.982 0.444,-0.889 1.771,-1.329 3.099,-1.329 1.327,0 2.215,0.44 3.098,1.329 0.445,0.883 0.889,2.211 0.889,3.982 z M 193.04,-32.32 v 7.524 c 0.889,0 1.326,0 1.772,0.444 0.444,0.445 1.327,1.328 1.327,2.656 0.444,0.888 0.888,2.66 0.888,5.314 0,3.543 -0.444,5.756 -1.333,7.086 -0.882,0.883 -1.328,1.327 -2.654,1.77 V 0 c 2.216,0 3.987,-0.444 5.759,-1.327 1.327,-0.886 2.21,-1.772 3.098,-3.543 0.883,-1.327 1.772,-3.099 2.21,-4.871 0.445,-2.212 0.445,-3.985 0.445,-6.197 0,-3.543 -0.445,-6.2 -0.883,-7.969 -0.444,-2.215 -1.333,-3.543 -2.66,-4.869 -0.883,-1.33 -2.21,-2.217 -3.099,-2.661 -1.771,-0.441 -3.544,-0.883 -4.87,-0.883 M 274.063,0 v -8.413 l -2.655,-11.512 h 2.655 v -7.084 h -4.426 l -1.327,-5.311 h -7.525 L 270.081,0 Z m 329.413,-21.696 7.087,0.444 c 0.438,-1.327 0.883,-2.655 1.327,-3.544 0.443,-1.326 1.773,-1.771 3.099,-1.771 1.328,0 2.215,0.445 2.655,0.888 0.443,0.883 0.89,1.772 0.89,2.655 0,0.445 -0.447,1.328 -0.89,2.216 -0.44,0.442 -1.774,1.327 -3.981,1.772 -3.1,0.883 -5.76,2.209 -7.086,3.981 -1.328,1.329 -2.217,3.544 -2.217,6.201 0,1.771 0.444,3.099 1.332,4.429 0.438,1.768 1.77,2.654 3.1,3.539 1.328,0.886 3.541,1.33 6.197,1.33 3.098,0 5.315,-0.888 7.084,-2.215 1.768,-1.771 2.656,-3.984 3.1,-7.525 l -7.086,-0.445 c -0.443,1.328 -0.883,2.658 -1.326,3.099 -0.444,0.887 -1.328,1.328 -2.66,1.328 -0.885,0 -1.329,-0.441 -1.768,-0.883 -0.443,-0.445 -0.887,-1.329 -0.887,-1.772 0,-0.444 0,-0.885 0.444,-1.327 0.443,-0.445 1.326,-0.889 2.654,-1.33 3.543,-0.885 5.76,-1.771 7.086,-2.657 1.773,-1.327 2.654,-2.213 3.543,-3.985 0.437,-1.327 0.885,-2.657 0.885,-4.428 0,-2.211 -0.448,-3.983 -1.329,-5.754 -0.888,-1.772 -2.214,-3.098 -3.988,-3.987 -1.328,-0.883 -3.537,-1.328 -5.752,-1.328 -4.426,0 -7.086,0.887 -8.859,3.1 -1.326,2.215 -2.654,4.869 -2.654,7.969 M 557.427,0 h 10.187 l 3.987,-19.481 3.98,19.481 h 9.74 v -32.32 h -6.197 v 24.794 l -4.869,-24.794 h -5.76 l -4.424,24.794 V -32.32 h -6.644 z m -39.405,0 h 20.813 v -7.083 h -12.838 v -4.87 h 11.949 v -6.642 h -11.949 v -6.641 h 13.275 v -7.084 h -21.25 z m -41.173,0 h 23.463 v -7.969 h -7.969 V -32.32 h -7.526 v 24.351 h -7.968 z m -38.961,-21.696 7.523,0.444 c 0,-1.327 0.445,-2.655 0.891,-3.544 0.881,-1.326 1.765,-1.771 3.535,-1.771 0.889,0 1.771,0.445 2.217,0.888 0.883,0.883 0.883,1.772 0.883,2.655 0,0.445 0,1.328 -0.883,2.216 -0.446,0.442 -1.772,1.327 -3.987,1.772 -3.101,0.883 -5.754,2.209 -7.082,3.981 -1.326,1.329 -2.216,3.544 -2.216,6.201 0,1.771 0.445,3.099 1.328,4.429 0.888,1.768 1.771,2.654 3.099,3.539 1.77,0.886 3.541,1.33 6.203,1.33 3.1,0 5.752,-0.888 7.524,-2.215 1.328,-1.771 2.654,-3.984 2.654,-7.525 l -7.078,-0.445 c -0.445,1.328 -0.445,2.658 -1.328,3.099 -0.445,0.887 -1.334,1.328 -2.66,1.328 -0.883,0 -1.328,-0.441 -1.774,-0.883 -0.435,-0.445 -0.881,-1.329 -0.881,-1.772 0,-0.444 0.446,-0.885 0.881,-1.327 0,-0.445 0.891,-0.889 2.217,-1.33 3.545,-0.885 5.754,-1.771 7.525,-2.657 1.329,-1.327 2.215,-2.213 3.098,-3.985 0.445,-1.327 0.891,-2.657 0.891,-4.428 0,-2.211 -0.446,-3.983 -1.328,-5.754 -0.889,-1.772 -2.217,-3.098 -3.543,-3.987 -1.772,-0.883 -3.543,-1.328 -6.198,-1.328 -3.988,0 -7.086,0.887 -8.859,3.1 -1.326,2.215 -2.215,4.869 -2.652,7.969 M 397.153,0 h 8.414 l 4.87,-11.067 L 415.308,0 h 8.408 l -9.299,-19.036 V -32.32 h -7.969 v 13.284 z m -38.523,-21.696 7.529,0.444 c 0,-1.327 0.445,-2.655 0.883,-3.544 0.889,-1.326 1.771,-1.771 3.1,-1.771 1.334,0 2.214,0.445 2.66,0.888 0.439,0.883 0.883,1.772 0.883,2.655 0,0.445 -0.444,1.328 -0.883,2.216 -0.446,0.442 -1.772,1.327 -3.989,1.772 -3.097,0.883 -5.751,2.209 -7.085,3.981 -1.327,1.329 -2.209,3.544 -2.209,6.201 0,1.771 0.443,3.099 1.326,4.429 0.445,1.768 1.771,2.654 3.099,3.539 1.772,0.886 3.543,1.33 6.198,1.33 3.099,0 5.759,-0.888 7.086,-2.215 1.771,-1.771 2.654,-3.984 3.097,-7.525 l -7.084,-0.445 c -0.439,1.328 -0.885,2.658 -1.328,3.099 -0.437,0.887 -1.328,1.328 -2.654,1.328 -0.889,0 -1.328,-0.441 -1.772,-0.883 -0.445,-0.445 -0.883,-1.329 -0.883,-1.772 0,-0.444 0.438,-0.885 0.438,-1.327 0.445,-0.445 1.328,-0.889 2.662,-1.33 3.537,-0.885 5.752,-1.771 7.524,-2.657 1.326,-1.327 2.216,-2.213 3.097,-3.985 0.446,-1.327 0.891,-2.657 0.891,-4.428 0,-2.211 -0.445,-3.983 -1.334,-5.754 -0.883,-1.772 -2.209,-3.098 -3.537,-3.987 -1.772,-0.883 -3.543,-1.328 -6.203,-1.328 -3.983,0 -7.08,0.887 -8.852,3.1 -1.328,2.215 -2.217,4.869 -2.66,7.969 M 307.717,0 h 7.524 v -24.352 h 11.957 v -7.968 h -19.481 z m -33.654,-27.009 v 7.084 h 2.661 l -2.661,11.512 V 0 h 3.987 l 9.741,-32.32 h -8.414 l -0.882,5.311 z"
       style="fill:#231f20;fill-opacity:1;fill-rule:evenodd;stroke:none"
       transform="matrix(1.3333333,0,0,-1.3333333,142.30293,221.3784)"
       clip-path="url(#clipPath18)" />
  </g>
</svg>
