<svg width="2048" height="1773" viewBox="0 0 2048 1773" fill="none" xmlns="http://www.w3.org/2000/svg">
<g clip-path="url(#clip0_461_430)">
<path d="M1096.04 1063.11C1129.32 1031.55 1160.88 1002.04 1193.81 970.484C1203.76 979.747 1216.11 991.41 1228.11 1003.07C1235.66 1010.28 1242.87 1017.48 1250.41 1024.34C1264.13 1036.69 1275.11 1036.69 1287.8 1024C1322.11 989.695 1356.07 954.704 1390.03 920.056C1448.35 860.709 1507.01 801.018 1565.33 741.671C1597.92 708.738 1630.51 675.806 1662.76 642.873C1675.79 629.494 1675.45 618.517 1661.04 604.795C1594.49 541.331 1527.6 478.553 1460.7 415.432C1401.01 358.829 1340.98 302.569 1281.29 245.966C1266.19 231.558 1254.87 230.872 1240.12 245.966C1135.15 353.34 1029.83 460.714 924.859 568.089C906.334 586.956 887.467 605.138 869.285 624.005C853.848 639.786 853.848 649.391 869.628 664.828C912.509 705.994 956.077 746.474 998.958 787.297C1003.07 791.07 1007.19 795.187 1010.62 798.617C979.061 830.521 948.529 861.738 916.283 894.328C893.642 873.059 871.344 852.133 849.045 830.864C814.054 797.931 779.75 764.655 744.416 732.066C705.651 696.046 691.929 650.42 711.14 603.422C718.344 585.584 732.066 569.461 745.788 555.396C860.709 437.73 976.316 320.407 1091.58 203.085C1120.74 173.24 1149.9 143.394 1179.4 113.892C1225.37 67.9237 1296.04 67.5806 1343.04 112.177C1415.08 180.444 1487.46 248.71 1559.84 316.977C1638.4 391.075 1717.3 464.831 1795.52 538.929C1845.6 586.613 1845.6 655.566 1796.89 704.965C1673.73 829.835 1550.58 954.704 1427.43 1079.92C1406.16 1101.53 1384.89 1122.8 1363.96 1145.1C1313.53 1198.61 1249.04 1203.76 1193.47 1155.73C1160.53 1126.57 1130 1095.01 1096.04 1063.11Z" fill="#0C4222"/>
<path d="M1089.52 476.838C1119.37 446.306 1147.5 417.147 1176.31 389.017C1178.71 386.616 1189.35 387.988 1192.78 391.075C1223.31 418.862 1252.81 447.335 1283 475.465C1308.04 499.136 1332.74 522.806 1358.13 545.79C1409.59 593.131 1410.27 663.113 1360.19 713.884C1215.08 861.052 1069.28 1008.22 925.202 1156.42C877.861 1205.13 802.047 1205.13 756.422 1160.53C693.987 1099.13 629.837 1039.78 566.373 979.747C481.64 899.816 396.564 819.886 311.488 740.299C255.571 687.812 253.856 622.633 307.714 567.745C445.963 427.096 584.555 286.789 722.46 145.796C745.787 121.782 768.429 97.7689 803.077 91.251C838.411 84.733 871.686 90.2218 899.473 114.578C930.691 142.022 960.536 171.181 991.41 199.654C998.271 206.172 1003.07 212.347 994.498 221.266C967.054 249.396 939.953 277.869 911.823 307.029C889.868 286.789 871.343 268.95 852.476 251.798C835.323 236.361 827.433 236.017 811.996 252.141C758.137 306.685 704.965 361.573 651.449 416.118C595.189 473.064 538.586 529.324 482.326 586.27C468.947 599.649 455.911 613.371 442.876 626.75C422.636 648.019 422.636 654.537 443.562 674.434C489.53 718.344 535.499 761.911 581.467 805.478C658.996 878.891 737.211 951.96 814.74 1025.37C836.695 1045.96 845.615 1046.3 866.541 1025.03C989.352 899.816 1112.16 774.604 1234.97 649.391C1248.35 635.669 1248.7 625.035 1234.29 611.313C1191.06 570.49 1147.84 529.667 1104.62 489.187C1099.81 485.071 1095.35 481.64 1089.52 476.838Z" fill="#157E46"/>
<path d="M270 1275H301.108L374.255 1416.11H376.778L449.924 1275H481.033V1445H456.651V1315.84H454.549L387.287 1445H363.746L296.484 1315.84H294.382V1445H270V1275Z" fill="#157E46"/>
<path d="M539.211 1445V1275H669.11V1293.26H565.275V1350.7H662.383V1368.96H565.275V1426.74H670.791V1445H539.211Z" fill="#157E46"/>
<path d="M710.236 1293.26V1275H871.663V1293.26H803.981V1445H777.918V1293.26H710.236Z" fill="#157E46"/>
<path d="M901.492 1445H874.167L953.199 1275H980.104L1059.14 1445H1031.81L967.492 1301.89H965.81L901.492 1445ZM911.581 1378.59H1021.72V1396.86H911.581V1378.59Z" fill="#157E46"/>
<path d="M1165 1445H1098.58V1275H1167.94C1188.82 1275 1206.69 1278.4 1221.54 1285.21C1236.4 1291.96 1247.78 1301.67 1255.7 1314.35C1263.62 1326.96 1267.57 1342.07 1267.57 1359.67C1267.57 1377.38 1263.58 1392.62 1255.59 1405.41C1247.61 1418.13 1235.98 1427.93 1220.7 1434.79C1205.43 1441.6 1186.86 1445 1165 1445ZM1124.64 1426.74H1163.32C1181.12 1426.74 1195.86 1424.03 1207.57 1418.6C1219.27 1413.18 1227.99 1405.46 1233.73 1395.44C1239.48 1385.43 1242.35 1373.5 1242.35 1359.67C1242.35 1345.94 1239.51 1334.13 1233.84 1324.22C1228.16 1314.26 1219.69 1306.63 1208.41 1301.31C1197.13 1295.95 1183.08 1293.26 1166.26 1293.26H1124.64V1426.74Z" fill="#157E46"/>
<path d="M1315.93 1445H1288.6L1367.63 1275H1394.54L1473.57 1445H1446.25L1381.93 1301.89H1380.25L1315.93 1445ZM1326.02 1378.59H1436.16V1396.86H1326.02V1378.59Z" fill="#157E46"/>
<path d="M1476.1 1293.26V1275H1637.53V1293.26H1569.85V1445H1543.78V1293.26H1476.1Z" fill="#157E46"/>
<path d="M1667.36 1445H1640.03L1719.06 1275H1745.97L1825 1445H1797.67L1733.36 1301.89H1731.67L1667.36 1445ZM1677.45 1378.59H1787.59V1396.86H1677.45V1378.59Z" fill="#157E46"/>
<path d="M290.961 1557.47C289.7 1549.31 284.585 1542.98 275.616 1538.47C266.648 1533.96 255.647 1531.71 242.615 1531.71C233.086 1531.71 224.748 1532.89 217.601 1535.25C210.524 1537.61 204.989 1540.86 200.995 1544.99C197.072 1549.12 195.11 1553.82 195.11 1559.08C195.11 1563.48 196.476 1567.26 199.209 1570.43C202.011 1573.54 205.585 1576.14 209.929 1578.23C214.273 1580.27 218.827 1581.96 223.592 1583.3C228.356 1584.59 232.736 1585.64 236.729 1586.44L258.59 1590.95C264.196 1592.08 270.432 1593.63 277.298 1595.62C284.235 1597.6 290.856 1600.31 297.162 1603.75C303.538 1607.13 308.793 1611.48 312.927 1616.79C317.061 1622.1 319.128 1628.62 319.128 1636.35C319.128 1645.26 316.08 1653.31 309.984 1660.5C303.959 1667.69 295.13 1673.4 283.499 1677.64C271.938 1681.88 257.89 1684 241.354 1684C225.939 1684 212.591 1682.1 201.311 1678.29C190.1 1674.48 181.271 1669.16 174.825 1662.35C168.449 1655.53 164.841 1647.62 164 1638.6H190.906C191.606 1644.83 194.339 1649.98 199.103 1654.06C203.938 1658.08 210.034 1661.09 217.391 1663.07C224.818 1665 232.806 1665.97 241.354 1665.97C251.303 1665.97 260.237 1664.74 268.154 1662.27C276.072 1659.74 282.343 1656.26 286.967 1651.8C291.592 1647.3 293.904 1642.04 293.904 1636.03C293.904 1630.55 291.907 1626.1 287.913 1622.66C283.919 1619.23 278.664 1616.44 272.148 1614.29C265.632 1612.15 258.59 1610.27 251.023 1608.66L224.538 1602.86C207.722 1599.16 194.409 1593.88 184.6 1587.01C174.79 1580.14 169.886 1571.15 169.886 1560.04C169.886 1550.81 173.144 1542.76 179.66 1535.89C186.246 1528.97 195.075 1523.61 206.145 1519.8C217.286 1515.93 229.723 1514 243.456 1514C257.329 1514 269.661 1515.9 280.451 1519.71C291.241 1523.47 299.79 1528.62 306.096 1535.17C312.472 1541.72 315.835 1549.15 316.185 1557.47H290.961Z" fill="#0A4020"/>
<path d="M549.515 1598.68C549.515 1616.06 545.416 1631.09 537.218 1643.75C529.021 1656.42 517.775 1666.18 503.481 1673.05C489.188 1679.92 472.862 1683.36 454.505 1683.36C436.147 1683.36 419.821 1679.92 405.528 1673.05C391.234 1666.18 379.988 1656.42 371.791 1643.75C363.593 1631.09 359.494 1616.06 359.494 1598.68C359.494 1581.29 363.593 1566.27 371.791 1553.6C379.988 1540.94 391.234 1531.17 405.528 1524.3C419.821 1517.43 436.147 1514 454.505 1514C472.862 1514 489.188 1517.43 503.481 1524.3C517.775 1531.17 529.021 1540.94 537.218 1553.6C545.416 1566.27 549.515 1581.29 549.515 1598.68ZM524.291 1598.68C524.291 1584.4 521.173 1572.36 514.937 1562.54C508.771 1552.72 500.398 1545.28 489.818 1540.24C479.308 1535.2 467.537 1532.67 454.505 1532.67C441.472 1532.67 429.666 1535.2 419.086 1540.24C408.576 1545.28 400.203 1552.72 393.967 1562.54C387.801 1572.36 384.718 1584.4 384.718 1598.68C384.718 1612.95 387.801 1625 393.967 1634.82C400.203 1644.64 408.576 1652.07 419.086 1657.12C429.666 1662.16 441.472 1664.68 454.505 1664.68C467.537 1664.68 479.308 1662.16 489.818 1657.12C500.398 1652.07 508.771 1644.64 514.937 1634.82C521.173 1625 524.291 1612.95 524.291 1598.68Z" fill="#0A4020"/>
<path d="M599.261 1681.1V1516.25H625.326V1663.39H725.382V1681.1H599.261Z" fill="#0A4020"/>
<path d="M912.914 1516.25H938.979V1625.4C938.979 1636.67 935.511 1646.73 928.574 1655.59C921.707 1664.39 912.003 1671.34 899.461 1676.43C886.919 1681.48 872.205 1684 855.319 1684C838.433 1684 823.719 1681.48 811.177 1676.43C798.635 1671.34 788.896 1664.39 781.959 1655.59C775.092 1646.73 771.659 1636.67 771.659 1625.4V1516.25H797.724V1623.79C797.724 1631.84 800.036 1639 804.661 1645.28C809.285 1651.51 815.871 1656.42 824.42 1660.01C833.038 1663.55 843.338 1665.33 855.319 1665.33C867.3 1665.33 877.6 1663.55 886.219 1660.01C894.837 1656.42 901.423 1651.51 905.977 1645.28C910.602 1639 912.914 1631.84 912.914 1623.79V1516.25Z" fill="#0A4020"/>
<path d="M985.178 1533.96V1516.25H1146.61V1533.96H1078.93V1681.1H1052.86V1533.96H985.178Z" fill="#0A4020"/>
<path d="M1218.82 1516.25V1681.1H1192.76V1516.25H1218.82Z" fill="#0A4020"/>
<path d="M1458.62 1598.68C1458.62 1616.06 1454.52 1631.09 1446.32 1643.75C1438.12 1656.42 1426.88 1666.18 1412.58 1673.05C1398.29 1679.92 1381.96 1683.36 1363.61 1683.36C1345.25 1683.36 1328.92 1679.92 1314.63 1673.05C1300.34 1666.18 1289.09 1656.42 1280.89 1643.75C1272.69 1631.09 1268.6 1616.06 1268.6 1598.68C1268.6 1581.29 1272.69 1566.27 1280.89 1553.6C1289.09 1540.94 1300.34 1531.17 1314.63 1524.3C1328.92 1517.43 1345.25 1514 1363.61 1514C1381.96 1514 1398.29 1517.43 1412.58 1524.3C1426.88 1531.17 1438.12 1540.94 1446.32 1553.6C1454.52 1566.27 1458.62 1581.29 1458.62 1598.68ZM1433.39 1598.68C1433.39 1584.4 1430.27 1572.36 1424.04 1562.54C1417.87 1552.72 1409.5 1545.28 1398.92 1540.24C1388.41 1535.2 1376.64 1532.67 1363.61 1532.67C1350.57 1532.67 1338.77 1535.2 1328.19 1540.24C1317.68 1545.28 1309.3 1552.72 1303.07 1562.54C1296.9 1572.36 1293.82 1584.4 1293.82 1598.68C1293.82 1612.95 1296.9 1625 1303.07 1634.82C1309.3 1644.64 1317.68 1652.07 1328.19 1657.12C1338.77 1662.16 1350.57 1664.68 1363.61 1664.68C1376.64 1664.68 1388.41 1662.16 1398.92 1657.12C1409.5 1652.07 1417.87 1644.64 1424.04 1634.82C1430.27 1625 1433.39 1612.95 1433.39 1598.68Z" fill="#0A4020"/>
<path d="M1679.05 1516.25V1681.1H1653.82L1536.53 1551.67H1534.43V1681.1H1508.36V1516.25H1533.59L1651.3 1646.01H1653.4V1516.25H1679.05Z" fill="#0A4020"/>
<path d="M1854.83 1557.47C1853.57 1549.31 1848.46 1542.98 1839.49 1538.47C1830.52 1533.96 1819.52 1531.71 1806.49 1531.71C1796.96 1531.71 1788.62 1532.89 1781.47 1535.25C1774.4 1537.61 1768.86 1540.86 1764.87 1544.99C1760.94 1549.12 1758.98 1553.82 1758.98 1559.08C1758.98 1563.48 1760.35 1567.26 1763.08 1570.43C1765.88 1573.54 1769.46 1576.14 1773.8 1578.23C1778.15 1580.27 1782.7 1581.96 1787.46 1583.3C1792.23 1584.59 1796.61 1585.64 1800.6 1586.44L1822.46 1590.95C1828.07 1592.08 1834.3 1593.63 1841.17 1595.62C1848.11 1597.6 1854.73 1600.31 1861.03 1603.75C1867.41 1607.13 1872.67 1611.48 1876.8 1616.79C1880.93 1622.1 1883 1628.62 1883 1636.35C1883 1645.26 1879.95 1653.31 1873.86 1660.5C1867.83 1667.69 1859 1673.4 1847.37 1677.64C1835.81 1681.88 1821.76 1684 1805.23 1684C1789.81 1684 1776.46 1682.1 1765.18 1678.29C1753.97 1674.48 1745.14 1669.16 1738.7 1662.35C1732.32 1655.53 1728.71 1647.62 1727.87 1638.6H1754.78C1755.48 1644.83 1758.21 1649.98 1762.98 1654.06C1767.81 1658.08 1773.91 1661.09 1781.26 1663.07C1788.69 1665 1796.68 1665.97 1805.23 1665.97C1815.18 1665.97 1824.11 1664.74 1832.03 1662.27C1839.94 1659.74 1846.21 1656.26 1850.84 1651.8C1855.46 1647.3 1857.78 1642.04 1857.78 1636.03C1857.78 1630.55 1855.78 1626.1 1851.79 1622.66C1847.79 1619.23 1842.54 1616.44 1836.02 1614.29C1829.5 1612.15 1822.46 1610.27 1814.9 1608.66L1788.41 1602.86C1771.59 1599.16 1758.28 1593.88 1748.47 1587.01C1738.66 1580.14 1733.76 1571.15 1733.76 1560.04C1733.76 1550.81 1737.02 1542.76 1743.53 1535.89C1750.12 1528.97 1758.95 1523.61 1770.02 1519.8C1781.16 1515.93 1793.59 1514 1807.33 1514C1821.2 1514 1833.53 1515.9 1844.32 1519.71C1855.11 1523.47 1863.66 1528.62 1869.97 1535.17C1876.34 1541.72 1879.71 1549.15 1880.06 1557.47H1854.83Z" fill="#0A4020"/>
</g>
<defs>
<clipPath id="clip0_461_430">
<rect width="2048" height="1773" fill="white"/>
</clipPath>
</defs>
</svg>
