<svg xmlns="http://www.w3.org/2000/svg" viewBox="0 0 470.96 182.77">
  <title>1Asset 1</title>
  <g id="b44767ad-6193-4555-a526-e2863fec4824" data-name="Layer 2">
    <g id="a98c7848-bb86-4d43-a954-55c78a0890fe" data-name="Layer 1">
      <g>
        <g>
          <g>
            <path d="M131.19,50c-.24,2.67-.52,5.66-.83,8.9l46.49.1A91.73,91.73,0,0,0,137,12.19c-2.08,7.89-3.93,18.41-5.28,32.44C131.54,46.17,131.37,48,131.19,50Z" style="fill: #b20c24"/>
            <path d="M95,167.08a22.05,22.05,0,0,1-11.09,3,28.27,28.27,0,0,1-12.18-3C35.2,149.65,15.5,82.4,8.48,52.94A91.38,91.38,0,1,0,178.92,65.11L129.75,65C126.2,99.39,118.16,153.91,95,167.08Z" style="fill: #b20c24"/>
            <path d="M74.38,161.56c6.61,3.15,12.37,3.22,17.63.22C116.16,148,122.67,76.41,125.12,49.45c.19-2,.35-3.86.5-5.41,1.38-14.23,3.28-25.77,5.79-34.82A91.41,91.41,0,0,0,12.87,44.63C18,67.68,37.46,144,74.38,161.56Z" style="fill: #b20c24"/>
          </g>
          <path d="M85.3,125.6c17.34-2.09,28.09-16.44,35-34.73,2.54-16.39,3.94-31.76,4.82-41.42.18-2,.35-3.86.5-5.41,1.38-14.22,3.28-25.77,5.79-34.82l-.69-.32c-.46-.23-.92-.45-1.39-.66l-1-.43c-.49-.21-1-.43-1.46-.63-.29-.13-.59-.24-.88-.36l-1.57-.64-.33-.12c-1.26-.49-2.53-.94-3.82-1.37l-.7-.24L118.14,4l-1.08-.32-1.41-.4L114.47,3l-1.38-.34c-.42-.11-.83-.21-1.25-.3L110.49,2l-1.31-.27-1.34-.25c-.45-.09-.91-.16-1.36-.24L105.17,1l-1.43-.2L102.47.67,101,.5,99.74.38,98.12.25,97,.17c-.6,0-1.21-.06-1.83-.08l-1,0c-.93,0-1.86,0-2.8,0h0c-1.09,0-2.17,0-3.25.06L87.07.11c-.72,0-1.44.07-2.15.12l-1.26.1c-.64.06-1.29.11-1.93.18L80.4.67c-.61.07-1.22.14-1.83.23l-1.36.2-1.76.29-1.37.26L72.36,2,71,2.29l-1.68.41L68,3l-1.67.46L65,3.89l-1.67.52L62,4.83c-.56.19-1.11.39-1.67.6l-1.23.44-1.72.68L56.24,7c-.65.27-1.29.55-1.93.84l-.88.38c-.92.42-1.83.86-2.73,1.31l-.85.44c-.62.31-1.24.63-1.85,1l-1.11.62-1.54.88-1.17.7c-.47.29-1,.57-1.42.87l-1.19.77-1.34.89L39,16.49l-1.3.92c-.39.28-.77.57-1.15.86l-1.26,1-1.14.9c-.41.33-.82.66-1.22,1l-1.11.94-1.18,1-1.08,1-1.15,1.09-1,1c-.39.38-.77.77-1.14,1.15s-.66.66-1,1-.78.84-1.17,1.26l-.88,1c-.47.53-.94,1.08-1.4,1.62l-.87,1c-.53.64-1.06,1.29-1.57,2-.25.31-.49.64-.73,1-.37.48-.74,1-1.1,1.45l-.76,1.08c-.33.46-.66.93-1,1.4s-.51.75-.75,1.13-.62.94-.92,1.41-.48.77-.72,1.16l-.57.95c2.57,11.58,8.75,36.55,18.94,60.77C42.45,119.21,58.73,128.8,85.3,125.6Z" style="fill: #cc052b"/>
        </g>
        <g>
          <g>
            <path d="M187.43,5.14h4.91l15,35L222.53,5.14h4.93L207.85,50.31h-1Z" style="fill: #060001"/>
            <path d="M243.72,5.14h4.53V50.31h-4.53Z" style="fill: #060001"/>
            <path d="M261,9.58V5.14h24.65V9.58H275.6V50.31h-4.52V9.58Z" style="fill: #060001"/>
            <path d="M314.17,5.14l21,45.17h-5l-6.93-14.79H303.71l-7,14.79h-5L313.05,5.14Zm-.63,9.58L305.8,31.1h15.41Z" style="fill: #060001"/>
            <path d="M347.92,5.14h4.52V45.88h17.41v4.43H347.92Z" style="fill: #060001"/>
            <path d="M382.54,5.14h4.52V50.31h-4.52Z" style="fill: #060001"/>
            <path d="M403.75,5.14h22.52V9.58h-18V23.75h18v4.43h-18V50.31h-4.5Z" style="fill: #060001"/>
            <path d="M437.3,5.14h5.29l11.54,18.64L465.41,5.14h5.28L456.41,28.73V50.31h-4.54V28.73Z" style="fill: #060001"/>
          </g>
          <g>
            <path d="M278,171.52H264.62l-13-31.29H213.52l-12.71,31.29H187.32L232.87,69.23Zm-31.2-43.73L232.71,92.1l-14.3,35.69Z" style="fill: #060001"/>
            <path d="M342.27,142.18a30,30,0,0,1-7,19.67q-7.93,9.66-21.13,9.67t-21.28-8.89q-8.19-8.9-8.2-22.65h13.25q0,8.29,4.42,13.38,4.53,5.28,12.29,5.28a14.42,14.42,0,0,0,10.69-4.77,15.63,15.63,0,0,0,4.59-11.18,17.49,17.49,0,0,0-2.45-9.25q-3.27-5.38-14-9.17-13.26-4.65-17.07-7.79-8.47-6.9-8.48-20.73A22.6,22.6,0,0,1,296,78a26.18,26.18,0,0,1,18-6.66,24.65,24.65,0,0,1,19.16,8.61q7,7.85,7,17.09v3.2H328q-2.1-15.88-14-15.89a5.71,5.71,0,0,0-1.5-.19,11.86,11.86,0,0,0-7.82,3.26,11.68,11.68,0,0,0-4.36,9.12q0,11.05,9.08,15.2l18.32,6.15q11,5.16,14.15,18c.24,1.81.39,3,.48,3.46Z" style="fill: #060001"/>
            <path d="M370.39,171.52H358V74.33h12.35Z" style="fill: #060001"/>
            <path d="M471,171.52H457.54l-13-31.29H406.44l-12.71,31.29H380.24L425.79,69.23Zm-31.19-43.73L425.62,92.1l-14.29,35.69Z" style="fill: #060001"/>
          </g>
        </g>
      </g>
    </g>
  </g>
</svg>
